<?xml version="1.0" encoding="UTF-8"?><svg id="desk" xmlns="http://www.w3.org/2000/svg" width="1569" height="670" viewBox="0 0 1569 670"><defs><style>.cls-1,.cls-2,.cls-3{stroke-miterlimit:10;}.cls-1,.cls-3{stroke:#000;}.cls-2{fill:#fff;stroke:#fff;}.cls-2,.cls-3{stroke-width:2px;}.cls-3{fill:none;}.cls-4{fill:#b4b4b4;stroke-width:0px;}</style></defs><rect class="cls-3" x="254.72" y="62.95" width="975" height="548.16"/><path class="cls-1" d="m254.22,62.45c-.11-2.67-.33-15.38,9.34-26.35,9.96-11.31,23.11-12.47,25.66-12.65,301.33-.33,602.67-.67,904-1,0,0,34,1,37,40H254.22Z"/><path class="cls-4" d="m1335.7,610.11v22.56s-6.26,10.42-45.41,14.57c-.61.06-1.24.13-1.87.19H196.29c-.7-.07-1.39-.14-2.07-.21-39.15-4.15-45.41-14.57-45.41-14.57v-22.56h1141.48v.02h45.41Z"/><circle class="cls-2" cx="745.22" cy="46.45" r="3.5"/></svg>