<svg width="180" height="115" viewBox="0 0 180 115" fill="none" xmlns="http://www.w3.org/2000/svg">
<g clip-path="url(#clip0_227_397)">
<path d="M63.46 98.655C60.4633 98.655 57.6117 97.785 54.905 96.045C52.1983 94.4017 50.1683 91.84 48.815 88.36C48.3317 87.1033 47.9933 85.75 47.8 84.3C47.6067 82.85 47.51 81.4967 47.51 80.24V78.935C47.51 78.1617 47.5583 77.3883 47.655 76.615C47.8483 75.8417 48.2833 75.455 48.96 75.455C49.1533 75.455 49.25 75.5517 49.25 75.745C49.25 76.325 49.2017 76.9533 49.105 77.63C49.105 78.21 49.105 78.79 49.105 79.37C49.105 83.9133 50.2167 87.345 52.44 89.665C54.76 91.985 57.6117 93.145 60.995 93.145C64.3783 93.145 67.665 92.1783 70.855 90.245C74.045 88.3117 76.9933 85.8467 79.7 82.85C82.4067 79.8533 84.9683 76.1317 87.385 71.685C89.8017 67.2383 92.0733 62.55 94.2 57.62C96.3267 52.5933 98.3083 47.6633 100.145 42.83C102.078 37.9967 103.867 33.695 105.51 29.925C106.477 27.7017 108.265 25.8167 110.875 24.27C113.582 22.7233 116.143 21.6117 118.56 20.935C117.883 20.8383 117.207 20.79 116.53 20.79C115.95 20.6933 115.37 20.5967 114.79 20.5L94.345 18.47C92.7983 18.2767 90.7683 18.1317 88.255 18.035C85.7417 17.9383 83.0833 17.89 80.28 17.89C76.51 17.89 72.6433 18.1317 68.68 18.615C64.7167 19.0017 61.14 19.7267 57.95 20.79C54.76 21.8533 52.44 23.4483 50.99 25.575C50.2167 26.735 49.83 28.0883 49.83 29.635C49.83 31.1817 50.265 32.6317 51.135 33.985C52.005 35.3383 53.1167 36.4017 54.47 37.175C54.6633 37.3683 54.76 37.5133 54.76 37.61C54.76 37.9 54.5183 38.1417 54.035 38.335C53.6483 38.5283 53.2133 38.5283 52.73 38.335C51.86 37.8517 50.845 37.03 49.685 35.87C48.525 34.71 47.4617 33.5017 46.495 32.245C45.625 30.8917 44.9967 29.78 44.61 28.91C44.03 27.2667 43.74 25.8167 43.74 24.56C43.74 22.24 44.5133 20.355 46.06 18.905C47.7033 17.3583 49.7817 16.1983 52.295 15.425C54.905 14.555 57.66 13.975 60.56 13.685C63.5567 13.2983 66.4083 13.105 69.115 13.105C70.1783 13.105 71.1933 13.105 72.16 13.105C73.1267 13.105 74.045 13.1533 74.915 13.25C78.0083 13.4433 81.2467 13.6367 84.63 13.83C88.0133 14.0233 91.445 14.265 94.925 14.555L117.98 16.44C119.527 16.5367 121.847 16.73 124.94 17.02C128.13 17.2133 131.368 17.31 134.655 17.31C138.232 17.31 141.518 17.1167 144.515 16.73C147.512 16.2467 149.493 15.425 150.46 14.265C150.653 13.8783 150.943 13.7817 151.33 13.975C151.717 14.1683 151.813 14.41 151.62 14.7C151.33 15.86 150.943 16.73 150.46 17.31C149.977 18.2767 149.3 19.34 148.43 20.5C147.657 21.66 146.448 22.4333 144.805 22.82C144.418 22.9167 143.887 23.0133 143.21 23.11C142.533 23.11 141.808 23.11 141.035 23.11C138.812 23.11 136.105 22.965 132.915 22.675C129.822 22.2883 126.777 21.9017 123.78 21.515C120.88 21.9983 118.367 23.3517 116.24 25.575C114.113 27.7983 112.277 30.36 110.73 33.26C109.183 36.0633 107.83 38.7217 106.67 41.235C104.543 45.585 102.755 49.5967 101.305 53.27C99.9517 56.8467 98.26 60.81 96.23 65.16C94.2 69.6067 92.0733 74.005 89.85 78.355C87.6267 82.6083 84.92 86.475 81.73 89.955C79.3133 92.565 76.51 94.6433 73.32 96.19C70.13 97.8333 66.8433 98.655 63.46 98.655Z" fill="#412E55"/>
</g>
<defs>
<clipPath id="clip0_227_397">
<rect width="180" height="115" fill="white"/>
</clipPath>
</defs>
</svg>
