<svg width="517" height="140" viewBox="0 0 517 140" fill="none" xmlns="http://www.w3.org/2000/svg">
<path d="M20.46 94.655C17.4633 94.655 14.6117 93.785 11.905 92.045C9.19833 90.4017 7.16833 87.84 5.815 84.36C5.33167 83.1033 4.99333 81.75 4.8 80.3C4.60667 78.85 4.51 77.4967 4.51 76.24V74.935C4.51 74.1617 4.55833 73.3883 4.655 72.615C4.84833 71.8417 5.28333 71.455 5.96 71.455C6.15333 71.455 6.25 71.5517 6.25 71.745C6.25 72.325 6.20167 72.9533 6.105 73.63C6.105 74.21 6.105 74.79 6.105 75.37C6.105 79.9133 7.21667 83.345 9.44 85.665C11.76 87.985 14.6117 89.145 17.995 89.145C21.3783 89.145 24.665 88.1783 27.855 86.245C31.045 84.3117 33.9933 81.8467 36.7 78.85C39.4067 75.8533 41.9683 72.1317 44.385 67.685C46.8017 63.2383 49.0733 58.55 51.2 53.62C53.3267 48.5933 55.3083 43.6633 57.145 38.83C59.0783 33.9967 60.8667 29.695 62.51 25.925C63.4767 23.7017 65.265 21.8167 67.875 20.27C70.5817 18.7233 73.1433 17.6117 75.56 16.935C74.8833 16.8383 74.2067 16.79 73.53 16.79C72.95 16.6933 72.37 16.5967 71.79 16.5L51.345 14.47C49.7983 14.2767 47.7683 14.1317 45.255 14.035C42.7417 13.9383 40.0833 13.89 37.28 13.89C33.51 13.89 29.6433 14.1317 25.68 14.615C21.7167 15.0017 18.14 15.7267 14.95 16.79C11.76 17.8533 9.44 19.4483 7.99 21.575C7.21667 22.735 6.83 24.0883 6.83 25.635C6.83 27.1817 7.265 28.6317 8.135 29.985C9.005 31.3383 10.1167 32.4017 11.47 33.175C11.6633 33.3683 11.76 33.5133 11.76 33.61C11.76 33.9 11.5183 34.1417 11.035 34.335C10.6483 34.5283 10.2133 34.5283 9.73 34.335C8.86 33.8517 7.845 33.03 6.685 31.87C5.525 30.71 4.46167 29.5017 3.495 28.245C2.625 26.8917 1.99667 25.78 1.61 24.91C1.03 23.2667 0.74 21.8167 0.74 20.56C0.74 18.24 1.51333 16.355 3.06 14.905C4.70333 13.3583 6.78167 12.1983 9.295 11.425C11.905 10.555 14.66 9.97499 17.56 9.68499C20.5567 9.29833 23.4083 9.105 26.115 9.105C27.1783 9.105 28.1933 9.105 29.16 9.105C30.1267 9.105 31.045 9.15333 31.915 9.25C35.0083 9.44333 38.2467 9.63666 41.63 9.83C45.0133 10.0233 48.445 10.265 51.925 10.555L74.98 12.44C76.5267 12.5367 78.8467 12.73 81.94 13.02C85.13 13.2133 88.3683 13.31 91.655 13.31C95.2317 13.31 98.5183 13.1167 101.515 12.73C104.512 12.2467 106.493 11.425 107.46 10.265C107.653 9.87833 107.943 9.78166 108.33 9.975C108.717 10.1683 108.813 10.41 108.62 10.7C108.33 11.86 107.943 12.73 107.46 13.31C106.977 14.2767 106.3 15.34 105.43 16.5C104.657 17.66 103.448 18.4333 101.805 18.82C101.418 18.9167 100.887 19.0133 100.21 19.11C99.5333 19.11 98.8083 19.11 98.035 19.11C95.8117 19.11 93.105 18.965 89.915 18.675C86.8217 18.2883 83.7767 17.9017 80.78 17.515C77.88 17.9983 75.3667 19.3517 73.24 21.575C71.1133 23.7983 69.2767 26.36 67.73 29.26C66.1833 32.0633 64.83 34.7217 63.67 37.235C61.5433 41.585 59.755 45.5967 58.305 49.27C56.9517 52.8467 55.26 56.81 53.23 61.16C51.2 65.6067 49.0733 70.005 46.85 74.355C44.6267 78.6083 41.92 82.475 38.73 85.955C36.3133 88.565 33.51 90.6433 30.32 92.19C27.13 93.8333 23.8433 94.655 20.46 94.655ZM67.3879 91.03C67.0012 91.03 67.0012 90.6433 67.3879 89.87C67.8712 89 68.3062 88.0333 68.6929 86.97C69.1762 85.9067 69.6596 84.7467 70.1429 83.49C71.1096 81.17 72.1729 78.56 73.3329 75.66C74.4929 72.76 75.6046 69.9567 76.6679 67.25C77.7312 64.4467 78.6496 62.0783 79.4229 60.145C80.2929 58.115 80.8729 56.81 81.1629 56.23C79.8096 57.68 78.1662 59.5167 76.2329 61.74C74.3962 63.8667 72.6562 65.945 71.0129 67.975C69.3696 70.005 68.1129 71.6 67.2429 72.76C66.9529 73.1467 66.7112 73.34 66.5179 73.34C66.3246 73.34 66.2279 73.0983 66.2279 72.615C66.2279 71.8417 66.4696 71.1167 66.9529 70.44C68.7896 68.12 70.8196 65.51 73.0429 62.61C75.3629 59.71 77.4412 57.0517 79.2779 54.635C81.1146 52.1217 82.2746 50.4783 82.7579 49.705C83.8212 49.5117 85.3679 49.2217 87.3979 48.835C89.5246 48.4483 90.9746 47.9167 91.7479 47.24C92.0379 46.95 92.3279 46.805 92.6179 46.805C92.8112 46.805 92.9079 46.9983 92.9079 47.385C93.0046 47.675 92.9079 48.0133 92.6179 48.4C92.0379 48.98 91.1679 50.2367 90.0079 52.17C88.9446 54.1033 87.7362 56.3267 86.3829 58.84C85.0296 61.3533 83.7246 63.77 82.4679 66.09C83.4346 64.64 84.6912 62.9483 86.2379 61.015C87.8812 58.985 89.6696 57.0517 91.6029 55.215C93.5362 53.2817 95.4696 51.6867 97.4029 50.43C99.4329 49.1733 101.318 48.545 103.058 48.545C104.315 48.545 105.378 48.835 106.248 49.415C107.118 49.8983 107.795 50.8167 108.278 52.17C108.568 52.8467 108.713 53.62 108.713 54.49C108.713 56.1333 108.278 57.7283 107.408 59.275C106.635 60.725 106.055 61.8367 105.668 62.61C105.571 62.9 105.233 63.19 104.653 63.48C104.073 63.6733 103.831 63.5767 103.928 63.19C104.025 62.7067 104.073 62.2233 104.073 61.74C104.17 61.2567 104.218 60.725 104.218 60.145C104.218 58.5017 103.88 57.0033 103.203 55.65C102.623 54.2967 101.511 53.62 99.8679 53.62C98.3212 53.62 96.4362 54.5867 94.2129 56.52C91.9896 58.4533 89.7662 60.6767 87.5429 63.19C84.7396 66.4767 82.5162 69.6183 80.8729 72.615C79.2296 75.515 77.8762 78.3667 76.8129 81.17C76.2329 82.7167 75.6529 84.2633 75.0729 85.81C74.4929 87.26 74.0579 88.42 73.7679 89.29C72.5112 89.3867 71.2546 89.6767 69.9979 90.16C68.7412 90.74 67.8712 91.03 67.3879 91.03ZM136.185 33.61C134.831 33.61 133.865 33.175 133.285 32.305C132.898 31.8217 132.705 31.1933 132.705 30.42C132.705 28.8733 133.43 27.6167 134.88 26.65C135.943 26.07 136.91 25.78 137.78 25.78C139.23 25.78 140.245 26.215 140.825 27.085C141.211 27.5683 141.405 28.1967 141.405 28.97C141.405 30.5167 140.631 31.7733 139.085 32.74C138.215 33.32 137.248 33.61 136.185 33.61ZM110.955 89.435C109.988 89.435 109.166 89.2417 108.49 88.855C107.91 88.4683 107.62 87.7433 107.62 86.68C107.62 85.3267 107.958 83.7317 108.635 81.895C109.408 80.0583 110.23 78.2217 111.1 76.385C112.066 74.5483 112.791 73.05 113.275 71.89C113.951 70.5367 114.773 68.7967 115.74 66.67C116.803 64.4467 117.77 62.3683 118.64 60.435C119.606 58.405 120.283 57.0033 120.67 56.23C119.316 57.68 117.673 59.5167 115.74 61.74C113.903 63.8667 112.163 65.945 110.52 67.975C108.876 70.005 107.62 71.6 106.75 72.76C106.46 73.1467 106.218 73.34 106.025 73.34C105.831 73.34 105.735 73.0983 105.735 72.615C105.735 71.8417 105.976 71.1167 106.46 70.44C108.296 68.12 110.326 65.51 112.55 62.61C114.87 59.71 116.948 57.0517 118.785 54.635C120.621 52.1217 121.781 50.4783 122.265 49.705C123.328 49.5117 124.875 49.2217 126.905 48.835C129.031 48.4483 130.481 47.9167 131.255 47.24C131.545 46.95 131.835 46.805 132.125 46.805C132.318 46.805 132.415 46.9983 132.415 47.385C132.511 47.675 132.415 48.0133 132.125 48.4C131.545 49.0767 130.53 50.72 129.08 53.33C127.63 55.94 126.083 58.84 124.44 62.03C122.893 65.1233 121.443 67.9267 120.09 70.44C118.736 73.05 117.576 75.5633 116.61 77.98C115.643 80.3967 115.16 82.1367 115.16 83.2C115.16 84.5533 115.836 85.23 117.19 85.23C118.446 85.23 120.041 84.4567 121.975 82.91C124.005 81.3633 126.035 79.5267 128.065 77.4C130.095 75.1767 131.883 73.1467 133.43 71.31C133.913 70.73 134.493 70.0533 135.17 69.28C135.943 68.41 136.426 67.8783 136.62 67.685C136.813 67.8783 136.91 68.2167 136.91 68.7C136.813 69.3767 136.571 70.0533 136.185 70.73C135.798 71.31 135.411 71.8417 135.025 72.325C132.995 74.8383 130.771 77.4483 128.355 80.155C125.938 82.765 123.28 84.9883 120.38 86.825C117.48 88.565 114.338 89.435 110.955 89.435ZM134.79 91.175C134.404 91.175 134.404 90.74 134.79 89.87C135.274 89 135.709 88.0333 136.095 86.97C136.579 85.9067 137.062 84.7467 137.545 83.49C138.512 81.17 139.575 78.56 140.735 75.66C141.895 72.76 143.007 69.9567 144.07 67.25C145.134 64.4467 146.052 62.0783 146.825 60.145C147.695 58.115 148.275 56.81 148.565 56.23C147.212 57.68 145.569 59.5167 143.635 61.74C141.799 63.8667 140.059 65.945 138.415 67.975C136.772 70.005 135.515 71.6 134.645 72.76C134.355 73.1467 134.114 73.34 133.92 73.34C133.727 73.34 133.63 73.0983 133.63 72.615C133.63 71.8417 133.872 71.1167 134.355 70.44C136.192 68.12 138.222 65.51 140.445 62.61C142.765 59.71 144.844 57.0517 146.68 54.635C148.517 52.1217 149.677 50.4783 150.16 49.705C151.224 49.5117 152.77 49.2217 154.8 48.835C156.927 48.4483 158.377 47.9167 159.15 47.24C159.44 46.95 159.73 46.805 160.02 46.805C160.214 46.805 160.31 46.9983 160.31 47.385C160.407 47.675 160.31 48.0133 160.02 48.4C159.44 49.0767 158.425 50.6717 156.975 53.185C155.622 55.6017 154.124 58.3083 152.48 61.305C150.934 64.3017 149.484 67.0083 148.13 69.425C149.29 67.8783 150.547 66.38 151.9 64.93C153.254 63.48 154.559 62.0783 155.815 60.725C156.975 59.565 158.57 58.115 160.6 56.375C162.63 54.635 164.757 53.04 166.98 51.59C169.204 50.14 171.137 49.3183 172.78 49.125C173.167 49.0283 173.505 48.98 173.795 48.98C174.182 48.98 174.472 48.98 174.665 48.98C176.792 48.98 177.855 49.7533 177.855 51.3C177.855 52.46 177.227 54.0067 175.97 55.94C175.294 57.0033 174.23 58.7917 172.78 61.305C171.427 63.7217 170.025 66.38 168.575 69.28C167.222 72.0833 166.014 74.7417 164.95 77.255C163.984 79.6717 163.5 81.46 163.5 82.62C163.5 83.9733 164.177 84.65 165.53 84.65C167.174 84.65 168.962 83.8283 170.895 82.185C172.925 80.5417 175.1 78.4633 177.42 75.95C179.74 73.34 182.06 70.585 184.38 67.685C184.574 67.8783 184.67 68.2167 184.67 68.7C184.67 69.3767 184.429 70.0533 183.945 70.73C183.559 71.31 183.172 71.8417 182.785 72.325C181.819 73.5817 180.514 75.1767 178.87 77.11C177.324 78.9467 175.729 80.7833 174.085 82.62C172.442 84.36 170.944 85.7617 169.59 86.825C168.624 87.5017 167.367 88.2267 165.82 89C164.274 89.7733 162.727 90.16 161.18 90.16C159.44 90.16 158.232 89.725 157.555 88.855C156.879 87.8883 156.54 86.7283 156.54 85.375C156.54 83.8283 156.83 82.185 157.41 80.445C157.99 78.705 158.619 77.0617 159.295 75.515C160.069 73.8717 160.649 72.6633 161.035 71.89C162.775 68.5067 164.37 65.3167 165.82 62.32C167.27 59.3233 168.285 57.1967 168.865 55.94C169.155 55.36 169.3 54.8767 169.3 54.49C169.3 53.8133 168.769 53.765 167.705 54.345C166.642 54.925 165.337 55.795 163.79 56.955C162.34 58.115 160.987 59.275 159.73 60.435C158.474 61.4983 157.652 62.2233 157.265 62.61C153.689 66.38 150.547 70.585 147.84 75.225C145.23 79.7683 143.007 84.4567 141.17 89.29C139.914 89.3867 138.657 89.725 137.4 90.305C136.144 90.885 135.274 91.175 134.79 91.175ZM190.047 90.16C186.083 90.16 183.328 89.3867 181.782 87.84C180.235 86.2933 179.462 84.4083 179.462 82.185C179.462 79.3817 180.187 76.385 181.637 73.195C183.183 70.005 184.633 67.2983 185.987 65.075C187.533 62.755 189.612 60.3383 192.222 57.825C194.832 55.3117 197.683 53.185 200.777 51.445C203.87 49.705 206.867 48.835 209.767 48.835C212.28 48.835 214.02 49.4633 214.987 50.72C215.953 51.88 216.437 53.2817 216.437 54.925C216.437 57.9217 215.518 60.3867 213.682 62.32C211.942 64.2533 209.767 65.8483 207.157 67.105C204.547 68.265 202.033 69.2317 199.617 70.005C198.167 70.3917 196.475 70.7783 194.542 71.165C192.608 71.5517 190.772 71.745 189.032 71.745C188.355 73.485 187.823 75.1767 187.437 76.82C187.05 78.4633 186.857 79.9617 186.857 81.315C186.857 82.9583 187.243 84.3117 188.017 85.375C188.887 86.4383 190.288 86.97 192.222 86.97C192.995 86.97 193.913 86.8733 194.977 86.68C196.04 86.4867 197.2 86.1967 198.457 85.81C201.357 84.8433 204.208 83.2967 207.012 81.17C209.815 79.0433 212.377 76.7717 214.697 74.355C217.113 71.8417 218.95 69.7633 220.207 68.12C220.497 68.41 220.642 68.7483 220.642 69.135C220.642 69.6183 220.303 70.3917 219.627 71.455C217.693 74.1617 215.18 76.965 212.087 79.865C208.993 82.765 205.562 85.23 201.792 87.26C198.022 89.1933 194.107 90.16 190.047 90.16ZM190.192 68.845C191.448 68.9417 192.85 68.9417 194.397 68.845C196.04 68.6517 197.635 68.3133 199.182 67.83C203.145 66.67 205.997 64.8333 207.737 62.32C209.573 59.71 210.492 57.39 210.492 55.36C210.492 54.2 210.25 53.2333 209.767 52.46C209.283 51.6867 208.51 51.3 207.447 51.3C204.643 51.3 202.13 52.3633 199.907 54.49C197.683 56.52 195.75 58.8883 194.107 61.595C192.463 64.3017 191.158 66.7183 190.192 68.845ZM271.387 90.74C268.294 90.74 265.152 90.6433 261.962 90.45C258.772 90.3533 255.63 90.1117 252.537 89.725C245.674 89.145 242.242 86.9217 242.242 83.055C242.242 81.1217 243.015 78.8017 244.562 76.095C248.235 69.425 252.005 62.8033 255.872 56.23C259.739 49.56 263.557 42.89 267.327 36.22C268.487 34.0933 269.985 31.435 271.822 28.245C273.659 25.055 275.495 22.01 277.332 19.11C278.202 17.7567 279.459 16.4033 281.102 15.05C282.745 13.6 284.437 12.6817 286.177 12.295C284.147 12.3917 281.537 12.5367 278.347 12.73C275.254 12.9233 272.064 13.31 268.777 13.89C265.587 14.3733 262.687 15.195 260.077 16.355C257.564 17.4183 255.775 18.9167 254.712 20.85C254.325 21.72 253.987 22.59 253.697 23.46C253.407 24.33 253.262 25.2 253.262 26.07C253.262 28.2933 254.035 29.8883 255.582 30.855C255.679 30.855 255.727 30.9517 255.727 31.145C255.727 31.3383 255.534 31.5317 255.147 31.725C254.857 31.9183 254.567 31.9667 254.277 31.87C253.407 31.3867 252.344 30.2267 251.087 28.39C249.83 26.4567 249.057 24.8617 248.767 23.605C248.477 22.445 248.332 21.3817 248.332 20.415C248.332 17.9017 249.154 15.9683 250.797 14.615C252.44 13.165 254.519 12.15 257.032 11.57C259.545 10.8933 262.107 10.5067 264.717 10.41C267.327 10.2167 269.647 10.12 271.677 10.12C276.8 10.12 281.924 10.0717 287.047 9.975C292.17 9.78166 297.245 9.68499 302.272 9.68499C304.495 9.68499 306.67 9.68499 308.797 9.68499C311.02 9.68499 313.195 9.78166 315.322 9.975C317.739 10.0717 319.382 10.555 320.252 11.425C321.219 12.295 321.702 13.3583 321.702 14.615C321.702 16.1617 321.17 17.95 320.107 19.98C319.14 21.9133 318.222 23.7017 317.352 25.345C316.965 26.1183 316.337 26.6983 315.467 27.085C314.597 27.375 314.259 27.085 314.452 26.215C314.935 24.2817 315.177 22.3483 315.177 20.415C315.177 18.675 314.839 17.1283 314.162 15.775C313.582 14.325 312.422 13.31 310.682 12.73C309.039 12.2467 306.477 12.005 302.997 12.005C301.74 12.005 300.435 12.0533 299.082 12.15C297.825 12.15 296.52 12.1983 295.167 12.295C291.3 12.585 288.69 13.6 287.337 15.34C284.147 19.7867 281.054 24.62 278.057 29.84C275.157 34.9633 272.354 39.845 269.647 44.485C269.55 44.6783 269.502 44.92 269.502 45.21C269.502 45.79 269.937 46.08 270.807 46.08C274.19 46.08 277.815 46.1283 281.682 46.225C285.645 46.3217 289.125 46.3217 292.122 46.225C292.799 46.1283 293.814 46.0317 295.167 45.935C296.617 45.8383 298.067 45.645 299.517 45.355C301.064 45.065 302.224 44.7267 302.997 44.34C303.48 44.05 303.77 43.905 303.867 43.905C304.447 43.905 304.447 44.485 303.867 45.645C303.384 46.7083 302.514 47.82 301.257 48.98C300.097 50.0433 298.744 50.575 297.197 50.575C292.46 50.575 288.449 50.4783 285.162 50.285C281.972 50.0917 278.395 49.995 274.432 49.995C273.465 49.995 272.45 49.995 271.387 49.995C270.324 49.995 269.164 50.0433 267.907 50.14C266.94 50.2367 266.264 50.6233 265.877 51.3C264.91 53.04 264.04 54.635 263.267 56.085C262.59 57.535 261.72 59.2267 260.657 61.16C259.884 62.61 258.917 64.495 257.757 66.815C256.694 69.0383 255.727 71.3583 254.857 73.775C253.987 76.095 253.552 78.125 253.552 79.865C253.552 82.8617 254.954 84.94 257.757 86.1C260.56 87.1633 263.992 87.7433 268.052 87.84C273.659 87.84 279.169 87.3083 284.582 86.245C290.092 85.085 295.215 83.2 299.952 80.59C304.785 77.8833 308.99 74.2583 312.567 69.715C312.76 69.5217 312.905 69.425 313.002 69.425C313.292 69.425 313.485 69.715 313.582 70.295C313.679 70.7783 313.63 71.165 313.437 71.455C310.44 75.1283 307.54 78.705 304.737 82.185C301.934 85.5683 299.13 87.695 296.327 88.565C294.297 89.145 291.01 89.6283 286.467 90.015C281.924 90.4983 276.897 90.74 271.387 90.74ZM337.585 89.725C335.169 89.725 333.332 88.9033 332.075 87.26C331.302 86.1 330.529 84.36 329.755 82.04C328.982 79.72 328.305 77.3033 327.725 74.79C327.145 72.2767 326.662 70.2467 326.275 68.7C323.569 72.18 321.152 75.66 319.025 79.14C316.995 82.62 315.642 85.3267 314.965 87.26C314.772 87.84 314.095 88.3233 312.935 88.71C311.872 89.0967 310.809 89.29 309.745 89.29C308.199 89.29 307.619 88.8067 308.005 87.84C311.002 81.17 313.854 74.7417 316.56 68.555C319.267 62.3683 322.119 56.1333 325.115 49.85C328.209 43.5667 331.689 37.0417 335.555 30.275C338.262 25.345 341.5 20.6083 345.27 16.065C349.137 11.425 353.245 7.655 357.595 4.755C361.945 1.75833 366.344 0.259993 370.79 0.259993C372.24 0.259993 373.594 0.64666 374.85 1.42C376.107 2.19333 376.735 3.40166 376.735 5.04499V9.25C376.735 9.63667 376.445 9.83 375.865 9.83C375.575 9.83 375.43 9.73333 375.43 9.53999C375.43 7.99333 374.754 6.97833 373.4 6.495C372.047 5.915 370.742 5.62499 369.485 5.62499C366.102 5.62499 362.67 6.30166 359.19 7.65499C355.324 9.20166 352.085 11.5217 349.475 14.615C346.865 17.7083 344.449 20.995 342.225 24.475C339.325 28.9217 336.474 34.1417 333.67 40.135C330.867 46.0317 328.257 51.9767 325.84 57.97C323.52 63.9633 321.442 69.3767 319.605 74.21C320.669 72.8567 321.732 71.5033 322.795 70.15C323.859 68.7967 324.874 67.54 325.84 66.38C325.84 66.1867 325.792 65.9933 325.695 65.8C325.695 65.6067 325.695 65.4133 325.695 65.22C325.695 64.5433 325.84 63.9633 326.13 63.48C326.42 62.9967 326.807 62.4167 327.29 61.74C327.967 60.7733 328.595 60.0483 329.175 59.565C329.755 58.985 330.384 58.26 331.06 57.39L331.495 59.855C335.749 55.505 339.47 52.3633 342.66 50.43C344.884 49.0767 347.059 48.4 349.185 48.4C351.312 48.4 352.375 49.2217 352.375 50.865C352.375 52.2183 351.699 53.91 350.345 55.94C349.862 56.6167 349.572 57.1 349.475 57.39C349.379 57.68 349.185 57.97 348.895 58.26C348.799 58.3567 348.605 58.3567 348.315 58.26C348.025 58.1633 347.88 58.0183 347.88 57.825C347.88 56.665 347.494 55.94 346.72 55.65C345.947 55.2633 345.077 55.07 344.11 55.07C342.274 55.07 340.292 55.7467 338.165 57.1C336.135 58.3567 334.057 60.0967 331.93 62.32C332.414 64.7367 332.945 67.395 333.525 70.295C334.202 73.0983 334.927 75.7083 335.7 78.125C336.474 80.5417 337.199 82.33 337.875 83.49C338.359 84.2633 339.035 84.795 339.905 85.085C340.775 85.2783 341.5 85.375 342.08 85.375C343.434 85.375 344.98 84.6983 346.72 83.345C348.557 81.895 350.394 80.2033 352.23 78.27C354.164 76.24 355.904 74.2583 357.45 72.325C359.094 70.3917 360.35 68.845 361.22 67.685C361.607 68.1683 361.704 68.6517 361.51 69.135C361.414 69.715 361.124 70.3433 360.64 71.02C360.254 71.6 359.867 72.1317 359.48 72.615C357.547 75.0317 355.469 77.4967 353.245 80.01C351.022 82.4267 348.654 84.6017 346.14 86.535C345.077 87.405 343.772 88.1783 342.225 88.855C340.679 89.435 339.132 89.725 337.585 89.725ZM364.732 90.305C363.475 90.305 361.977 90.0633 360.237 89.58C358.497 89.1933 357.627 88.13 357.627 86.39C357.627 85.7133 357.772 84.94 358.062 84.07C358.352 83.2 358.642 82.4267 358.932 81.75C359.899 79.2367 360.914 76.675 361.977 74.065C363.04 71.455 364.152 68.7967 365.312 66.09C364.055 67.54 362.847 68.8933 361.687 70.15C360.624 71.31 359.85 72.18 359.367 72.76C359.077 73.1467 358.835 73.34 358.642 73.34C358.449 73.34 358.352 73.0983 358.352 72.615C358.352 71.8417 358.594 71.1167 359.077 70.44C360.43 68.7 361.977 66.8633 363.717 64.93C365.457 62.9967 367.149 60.9667 368.792 58.84C372.852 50.3333 377.395 42.1167 382.422 34.19C387.449 26.1667 393.104 19.0617 399.387 12.875C401.32 11.0383 403.495 9.15333 405.912 7.22C408.329 5.28666 410.89 3.64333 413.597 2.28999C416.4 0.93666 419.155 0.259993 421.862 0.259993C423.312 0.259993 424.617 0.64666 425.777 1.42C427.034 2.19333 427.71 3.40166 427.807 5.04499V9.25C427.807 9.63667 427.517 9.83 426.937 9.83C426.647 9.83 426.502 9.73333 426.502 9.53999C426.502 7.99333 425.825 6.97833 424.472 6.495C423.119 5.915 421.765 5.62499 420.412 5.62499C415.095 5.62499 410.31 7.02666 406.057 9.83C401.804 12.5367 398.034 16.1133 394.747 20.56C391.46 24.91 388.512 29.7433 385.902 35.06C383.292 40.28 380.924 45.4517 378.797 50.575C376.767 55.6017 374.834 60.0967 372.997 64.06C372.997 64.06 372.997 64.1567 372.997 64.35C372.997 64.5433 373.045 64.64 373.142 64.64C373.239 64.64 374.012 63.915 375.462 62.465C377.009 60.9183 378.894 59.13 381.117 57.1C383.437 55.07 385.854 53.33 388.367 51.88C390.88 50.3333 393.2 49.56 395.327 49.56C396.39 49.56 397.067 49.9467 397.357 50.72C397.647 51.3967 397.792 52.17 397.792 53.04V54.345C397.309 57.9217 396.052 61.7883 394.022 65.945C392.089 70.1017 389.575 74.065 386.482 77.835C383.485 81.5083 380.102 84.505 376.332 86.825C372.659 89.145 368.792 90.305 364.732 90.305ZM367.052 87.84C368.599 87.84 370.242 87.26 371.982 86.1C373.819 84.8433 375.22 83.7317 376.187 82.765C377.347 81.7017 378.749 80.0583 380.392 77.835C382.035 75.515 383.63 73.0017 385.177 70.295C386.724 67.5883 388.029 64.9783 389.092 62.465C390.155 59.9517 390.687 57.9217 390.687 56.375C390.687 55.8917 390.59 55.4567 390.397 55.07C390.204 54.6833 389.865 54.49 389.382 54.49C388.512 54.49 387.352 55.0217 385.902 56.085C384.549 57.1483 383.05 58.4533 381.407 60C379.86 61.45 378.41 62.9 377.057 64.35C375.8 65.7033 374.882 66.7183 374.302 67.395C373.239 68.555 371.885 70.2467 370.242 72.47C368.599 74.6933 367.1 76.965 365.747 79.285C364.49 81.5083 363.862 83.3933 363.862 84.94C363.862 86.8733 364.925 87.84 367.052 87.84ZM405.847 90.16C401.884 90.16 399.129 89.3867 397.582 87.84C396.036 86.2933 395.262 84.4083 395.262 82.185C395.262 79.3817 395.987 76.385 397.437 73.195C398.984 70.005 400.434 67.2983 401.787 65.075C403.334 62.755 405.412 60.3383 408.022 57.825C410.632 55.3117 413.484 53.185 416.577 51.445C419.671 49.705 422.667 48.835 425.567 48.835C428.081 48.835 429.821 49.4633 430.787 50.72C431.754 51.88 432.237 53.2817 432.237 54.925C432.237 57.9217 431.319 60.3867 429.482 62.32C427.742 64.2533 425.567 65.8483 422.957 67.105C420.347 68.265 417.834 69.2317 415.417 70.005C413.967 70.3917 412.276 70.7783 410.342 71.165C408.409 71.5517 406.572 71.745 404.832 71.745C404.156 73.485 403.624 75.1767 403.237 76.82C402.851 78.4633 402.657 79.9617 402.657 81.315C402.657 82.9583 403.044 84.3117 403.817 85.375C404.687 86.4383 406.089 86.97 408.022 86.97C408.796 86.97 409.714 86.8733 410.777 86.68C411.841 86.4867 413.001 86.1967 414.257 85.81C417.157 84.8433 420.009 83.2967 422.812 81.17C425.616 79.0433 428.177 76.7717 430.497 74.355C432.914 71.8417 434.751 69.7633 436.007 68.12C436.297 68.41 436.442 68.7483 436.442 69.135C436.442 69.6183 436.104 70.3917 435.427 71.455C433.494 74.1617 430.981 76.965 427.887 79.865C424.794 82.765 421.362 85.23 417.592 87.26C413.822 89.1933 409.907 90.16 405.847 90.16ZM405.992 68.845C407.249 68.9417 408.651 68.9417 410.197 68.845C411.841 68.6517 413.436 68.3133 414.982 67.83C418.946 66.67 421.797 64.8333 423.537 62.32C425.374 59.71 426.292 57.39 426.292 55.36C426.292 54.2 426.051 53.2333 425.567 52.46C425.084 51.6867 424.311 51.3 423.247 51.3C420.444 51.3 417.931 52.3633 415.707 54.49C413.484 56.52 411.551 58.8883 409.907 61.595C408.264 64.3017 406.959 66.7183 405.992 68.845ZM434.561 91.03C434.174 91.03 434.174 90.6433 434.561 89.87C435.044 89 435.479 88.0333 435.866 86.97C436.349 85.9067 436.832 84.7467 437.316 83.49C438.282 81.17 439.346 78.56 440.506 75.66C441.666 72.76 442.777 69.9567 443.841 67.25C444.904 64.4467 445.822 62.0783 446.596 60.145C447.466 58.115 448.046 56.81 448.336 56.23C446.982 57.68 445.339 59.5167 443.406 61.74C441.569 63.8667 439.829 65.945 438.186 67.975C436.542 70.005 435.286 71.6 434.416 72.76C434.126 73.1467 433.884 73.34 433.691 73.34C433.497 73.34 433.401 73.0983 433.401 72.615C433.401 71.8417 433.642 71.1167 434.126 70.44C435.962 68.12 437.992 65.51 440.216 62.61C442.536 59.71 444.614 57.0517 446.451 54.635C448.287 52.1217 449.447 50.4783 449.931 49.705C450.994 49.5117 452.541 49.2217 454.571 48.835C456.697 48.4483 458.147 47.9167 458.921 47.24C459.211 46.95 459.501 46.805 459.791 46.805C459.984 46.805 460.081 46.9983 460.081 47.385C460.177 47.675 460.081 48.0133 459.791 48.4C459.211 48.98 458.341 50.2367 457.181 52.17C456.117 54.1033 454.909 56.3267 453.556 58.84C452.202 61.3533 450.897 63.77 449.641 66.09C450.607 64.64 451.864 62.9483 453.411 61.015C455.054 58.985 456.842 57.0517 458.776 55.215C460.709 53.2817 462.642 51.6867 464.576 50.43C466.606 49.1733 468.491 48.545 470.231 48.545C471.487 48.545 472.551 48.835 473.421 49.415C474.291 49.8983 474.967 50.8167 475.451 52.17C475.741 52.8467 475.886 53.62 475.886 54.49C475.886 56.1333 475.451 57.7283 474.581 59.275C473.807 60.725 473.227 61.8367 472.841 62.61C472.744 62.9 472.406 63.19 471.826 63.48C471.246 63.6733 471.004 63.5767 471.101 63.19C471.197 62.7067 471.246 62.2233 471.246 61.74C471.342 61.2567 471.391 60.725 471.391 60.145C471.391 58.5017 471.052 57.0033 470.376 55.65C469.796 54.2967 468.684 53.62 467.041 53.62C465.494 53.62 463.609 54.5867 461.386 56.52C459.162 58.4533 456.939 60.6767 454.716 63.19C451.912 66.4767 449.689 69.6183 448.046 72.615C446.402 75.515 445.049 78.3667 443.986 81.17C443.406 82.7167 442.826 84.2633 442.246 85.81C441.666 87.26 441.231 88.42 440.941 89.29C439.684 89.3867 438.427 89.6767 437.171 90.16C435.914 90.74 435.044 91.03 434.561 91.03ZM447.243 139.75C443.569 139.75 440.041 138.88 436.658 137.14C433.178 135.497 430.616 132.935 428.973 129.455C428.296 128.198 427.861 126.845 427.668 125.395C427.474 124.042 427.378 122.688 427.378 121.335V119.885C427.378 119.112 427.474 118.387 427.668 117.71C427.861 117.033 428.393 116.695 429.263 116.695C429.456 116.695 429.553 116.792 429.553 116.985C429.553 117.565 429.504 118.145 429.408 118.725C429.311 119.305 429.263 119.933 429.263 120.61C429.263 125.057 430.713 128.44 433.613 130.76C436.416 133.08 439.944 134.24 444.198 134.24C445.938 134.24 447.726 134.047 449.563 133.66C451.399 133.273 453.091 132.742 454.638 132.065C460.824 129.455 466.189 125.685 470.733 120.755C475.373 115.825 479.384 110.267 482.768 104.08C486.248 97.8933 489.293 91.5617 491.903 85.085C494.609 78.5117 497.123 72.325 499.443 66.525C497.413 69.8117 495.189 72.76 492.773 75.37C490.356 77.8833 487.649 80.3967 484.653 82.91C482.816 84.4567 480.786 85.9067 478.563 87.26C476.436 88.6133 474.116 89.29 471.603 89.29C470.636 89.29 469.959 89 469.573 88.42C469.186 87.7433 468.993 86.97 468.993 86.1V85.085C469.476 81.315 470.684 77.4 472.618 73.34C474.648 69.28 477.064 65.4617 479.868 61.885C482.671 58.3083 485.523 55.4083 488.423 53.185C491.709 50.6717 495.334 49.415 499.298 49.415H515.973C516.456 49.415 516.698 49.6083 516.698 49.995C516.698 50.7683 516.263 51.155 515.393 51.155C514.329 51.155 513.314 51.59 512.348 52.46C511.381 53.33 510.656 54.1517 510.173 54.925C509.206 56.4717 507.949 58.84 506.403 62.03C504.856 65.22 503.164 68.8933 501.328 73.05C499.491 77.11 497.654 81.2667 495.818 85.52C493.981 89.6767 492.289 93.5917 490.743 97.265C488.423 102.775 485.764 108.14 482.768 113.36C479.868 118.677 476.388 123.413 472.328 127.57C468.364 131.823 463.628 135.158 458.118 137.575C454.831 139.025 451.206 139.75 447.243 139.75ZM477.548 84.36C478.708 84.36 480.303 83.5383 482.333 81.895C484.363 80.155 486.586 78.0283 489.003 75.515C491.419 72.905 493.691 70.1983 495.818 67.395C497.944 64.495 499.684 61.885 501.038 59.565C502.488 57.1483 503.213 55.3117 503.213 54.055C503.213 52.9917 502.874 52.2667 502.198 51.88C501.618 51.4933 500.844 51.3 499.878 51.3C498.331 51.3 496.688 51.88 494.948 53.04C493.208 54.1033 491.806 55.1667 490.743 56.23C489.583 57.2933 488.181 58.985 486.538 61.305C484.991 63.5283 483.396 65.9933 481.753 68.7C480.206 71.4067 478.901 74.0167 477.838 76.53C476.774 79.0433 476.243 81.0733 476.243 82.62C476.243 83.78 476.678 84.36 477.548 84.36Z" fill="#E9E5E0"/>
</svg>
