<?xml version="1.0" encoding="UTF-8"?><svg id="desk" xmlns="http://www.w3.org/2000/svg" width="1569" height="670" xmlns:xlink="http://www.w3.org/1999/xlink" viewBox="0 0 1569 670"><defs><style>.cls-1{clip-path:url(#clippath);}.cls-2,.cls-3,.cls-4{fill:none;}.cls-2,.cls-5,.cls-6{stroke-width:0px;}.cls-7,.cls-8,.cls-3,.cls-9,.cls-4{stroke-miterlimit:10;}.cls-7,.cls-3,.cls-9,.cls-4{stroke:#000;}.cls-8{fill:#fff;stroke:#fff;}.cls-8,.cls-4{stroke-width:2px;}.cls-3,.cls-9{stroke-width:5px;}.cls-6{fill:#b4b4b4;}</style><clipPath id="clippath"><rect class="cls-2" x="1291" y="76" width="255" height="525" rx="27.53" ry="27.53"/></clipPath></defs><image width="2560" height="1440" transform="translate(123 60) scale(.38)" xlink:href="../../../../../../../var/folders/j4/75gd680d7qlbxnvszgwzzplw0000gp/T/TemporaryItems/NSIRD_Illustrator_2czUhc/AI_27_9/Adobe/AISVG/2/tema_2/tema_21.png"/><image width="2560" height="1440" transform="translate(124 66) scale(.38)" xlink:href="../../../../../../../var/folders/j4/75gd680d7qlbxnvszgwzzplw0000gp/T/TemporaryItems/NSIRD_Illustrator_2czUhc/AI_27_9/Adobe/AISVG/2/tema_2/tema_22.png"/><rect class="cls-4" x="124" y="66" width="975" height="548.16"/><path class="cls-7" d="m123.5,65.5c-.11-2.67-.33-15.38,9.34-26.35,9.96-11.31,23.11-12.47,25.66-12.65,301.33-.33,602.67-.67,904-1,0,0,34,1,37,40H123.5Z"/><path class="cls-6" d="m1204.98,613.16v22.56s-6.26,10.42-45.41,14.57c-.61.06-1.24.13-1.87.19H65.57c-.7-.07-1.39-.14-2.07-.21-39.15-4.15-45.41-14.57-45.41-14.57v-22.56h1141.48v.02h45.41Z"/><circle class="cls-8" cx="614.5" cy="49.5" r="3.5"/><rect class="cls-4" x="123" y="60" width="975" height="548.16"/><path class="cls-7" d="m122.5,59.5c-.11-2.67-.33-15.38,9.34-26.35,9.96-11.31,23.11-12.47,25.66-12.65,301.33-.33,602.67-.67,904-1,0,0,34,1,37,40H122.5Z"/><path class="cls-6" d="m1203.98,607.16v22.56s-6.26,10.42-45.41,14.57c-.61.06-1.24.13-1.87.19H64.57c-.7-.07-1.39-.14-2.07-.21-39.15-4.15-45.41-14.57-45.41-14.57v-22.56h1141.48v.02h45.41Z"/><circle class="cls-8" cx="613.5" cy="43.5" r="3.5"/><g class="cls-1"><image width="750" height="1478" transform="translate(1291 76) scale(.34 .36)" xlink:href="../../../../../../../var/folders/j4/75gd680d7qlbxnvszgwzzplw0000gp/T/TemporaryItems/NSIRD_Illustrator_2czUhc/AI_27_9/Adobe/AISVG/2/tema_2/tema_23.png"/></g><rect class="cls-3" x="1288.5" y="73.5" width="260" height="530" rx="35.11" ry="35.11"/><rect class="cls-9" x="1373.5" y="73.5" width="88" height="16" rx="6.69" ry="6.69"/><rect class="cls-5" x="1550" y="208" width="3" height="58" rx="1.21" ry="1.21"/><rect class="cls-5" x="1284" y="159" width="4" height="18" rx="1.53" ry="1.53"/><rect class="cls-5" x="1284" y="196" width="4" height="36" rx="1.85" ry="1.85"/><rect class="cls-5" x="1284" y="243" width="4" height="36" rx="1.85" ry="1.85"/></svg>